<?xml version="1.0" encoding="UTF-8" standalone="no"?>
<!-- Created with Inkscape (http://www.inkscape.org/) -->

<svg
   xmlns:dc="http://purl.org/dc/elements/1.1/"
   xmlns:cc="http://creativecommons.org/ns#"
   xmlns:rdf="http://www.w3.org/1999/02/22-rdf-syntax-ns#"
   xmlns:svg="http://www.w3.org/2000/svg"
   xmlns="http://www.w3.org/2000/svg"
   xmlns:sodipodi="http://sodipodi.sourceforge.net/DTD/sodipodi-0.dtd"
   xmlns:inkscape="http://www.inkscape.org/namespaces/inkscape"
   width="24"
   height="24"
   viewBox="0 0 6.3499999 6.3500002"
   version="1.1"
   id="svg4579"
   inkscape:version="0.92.5 (2060ec1f9f, 2020-04-08)"
   sodipodi:docname="home.svg">
  <defs
     id="defs4573" />
  <sodipodi:namedview
     id="base"
     pagecolor="#ffffff"
     bordercolor="#666666"
     borderopacity="1.0"
     inkscape:pageopacity="0.0"
     inkscape:pageshadow="2"
     inkscape:zoom="32"
     inkscape:cx="12.393208"
     inkscape:cy="5.5421307"
     inkscape:document-units="mm"
     inkscape:current-layer="layer1"
     showgrid="true"
     units="px"
     inkscape:window-width="2556"
     inkscape:window-height="1637"
     inkscape:window-x="1248"
     inkscape:window-y="628"
     inkscape:window-maximized="0">
    <inkscape:grid
       type="xygrid"
       id="grid4581"
       empspacing="4"
       spacingx="0.13229167"
       spacingy="0.13229167" />
  </sodipodi:namedview>
  <metadata
     id="metadata4576">
    <rdf:RDF>
      <cc:Work
         rdf:about="">
        <dc:format>image/svg+xml</dc:format>
        <dc:type
           rdf:resource="http://purl.org/dc/dcmitype/StillImage" />
        <dc:title></dc:title>
      </cc:Work>
    </rdf:RDF>
  </metadata>
  <g
     inkscape:label="Layer 1"
     inkscape:groupmode="layer"
     id="layer1"
     transform="translate(0,-290.64998)">
    <path
       style="fill:#ffffff;fill-opacity:1;stroke:none;stroke-width:0.99999994px;stroke-linecap:butt;stroke-linejoin:miter;stroke-opacity:1"
       d="M 12 0 L 10.5 1.5 L 0 12 L 1 13 L 1.5 13.5 L 12 3 L 22.5 13.5 L 24 12 L 19.5 7.5 L 19.5 3.5 L 18 2 L 16.5 3.5 L 16.5 4.5 L 13.5 1.5 L 12 0 z M 12 4 L 2 14 L 2 24 L 14 24 L 14 15 L 18.5 15 L 18.5 24 L 22 24 L 22 14 L 12 4 z M 5.5 15 L 10 15 L 10 19.5 L 5.5 19.5 L 5.5 15 z "
       transform="matrix(0.26458333,0,0,0.26458333,0,290.64998)"
       id="path5132" />
  </g>
</svg>
